<svg width="280" height="180" viewBox="0 0 280 180" fill="none" xmlns="http://www.w3.org/2000/svg">
<rect x="115" width="20" height="60" fill="#18181B"/>
<rect x="115" y="80" width="50" height="20" fill="#18181B"/>
<path d="M2.39631 149V127.182H7.00923V145.197H16.3629V149H2.39631ZM50.6179 138.091C50.6179 140.47 50.1669 142.494 49.2649 144.163C48.37 145.832 47.1484 147.107 45.6001 147.988C44.0589 148.862 42.326 149.298 40.4013 149.298C38.4624 149.298 36.7223 148.858 35.1811 147.977C33.6399 147.097 32.4219 145.822 31.527 144.153C30.6321 142.484 30.1847 140.463 30.1847 138.091C30.1847 135.712 30.6321 133.688 31.527 132.018C32.4219 130.349 33.6399 129.078 35.1811 128.205C36.7223 127.324 38.4624 126.884 40.4013 126.884C42.326 126.884 44.0589 127.324 45.6001 128.205C47.1484 129.078 48.37 130.349 49.2649 132.018C50.1669 133.688 50.6179 135.712 50.6179 138.091ZM45.9411 138.091C45.9411 136.55 45.7102 135.25 45.2486 134.192C44.794 133.134 44.1513 132.331 43.3203 131.784C42.4893 131.237 41.5163 130.964 40.4013 130.964C39.2862 130.964 38.3132 131.237 37.4822 131.784C36.6513 132.331 36.005 133.134 35.5433 134.192C35.0888 135.25 34.8615 136.55 34.8615 138.091C34.8615 139.632 35.0888 140.932 35.5433 141.99C36.005 143.048 36.6513 143.851 37.4822 144.398C38.3132 144.945 39.2862 145.218 40.4013 145.218C41.5163 145.218 42.4893 144.945 43.3203 144.398C44.1513 143.851 44.794 143.048 45.2486 141.99C45.7102 140.932 45.9411 139.632 45.9411 138.091ZM68.7463 127.182L74.0197 143.759H74.2221L79.5062 127.182H84.6199L77.0985 149H71.1539L63.622 127.182H68.7463ZM99.2459 149V127.182H113.948V130.985H103.859V136.184H113.191V139.987H103.859V145.197H113.99V149H99.2459ZM129.615 149V127.182H134.228V145.197H143.582V149H129.615ZM162.954 149H158.011L165.543 127.182H171.487L179.009 149H174.065L168.6 132.168H168.43L162.954 149ZM162.645 140.424H174.321V144.025H162.645V140.424ZM211.884 127.182V149H207.9L198.407 135.268H198.248V149H193.635V127.182H197.683L207.1 140.903H207.292V127.182H211.884ZM246.946 134.82H242.28C242.194 134.217 242.02 133.68 241.758 133.212C241.495 132.736 241.157 132.331 240.746 131.997C240.334 131.663 239.858 131.408 239.318 131.23C238.785 131.053 238.206 130.964 237.581 130.964C236.452 130.964 235.469 131.244 234.631 131.805C233.792 132.359 233.143 133.169 232.681 134.234C232.219 135.293 231.988 136.578 231.988 138.091C231.988 139.646 232.219 140.953 232.681 142.011C233.15 143.07 233.803 143.869 234.641 144.408C235.479 144.948 236.449 145.218 237.55 145.218C238.167 145.218 238.739 145.136 239.265 144.973C239.797 144.81 240.27 144.572 240.682 144.259C241.094 143.94 241.434 143.553 241.704 143.098C241.981 142.643 242.173 142.125 242.28 141.543L246.946 141.564C246.825 142.565 246.523 143.531 246.04 144.462C245.564 145.385 244.922 146.212 244.112 146.944C243.309 147.668 242.351 148.244 241.236 148.67C240.128 149.089 238.874 149.298 237.475 149.298C235.529 149.298 233.789 148.858 232.255 147.977C230.728 147.097 229.52 145.822 228.633 144.153C227.752 142.484 227.312 140.463 227.312 138.091C227.312 135.712 227.759 133.688 228.654 132.018C229.549 130.349 230.763 129.078 232.297 128.205C233.831 127.324 235.557 126.884 237.475 126.884C238.739 126.884 239.911 127.061 240.991 127.416C242.077 127.771 243.04 128.29 243.878 128.972C244.716 129.646 245.398 130.474 245.923 131.454C246.456 132.434 246.797 133.556 246.946 134.82ZM262.254 149V127.182H276.955V130.985H266.867V136.184H276.199V139.987H266.867V145.197H276.998V149H262.254Z" fill="#18181B"/>
<line x1="87" y1="169" x2="37" y2="169" stroke="#18181B" stroke-width="2"/>
<path d="M108.409 174V162.364H109.818V167.545H116.023V162.364H117.432V174H116.023V168.795H109.818V174H108.409ZM133.271 168.182C133.271 169.409 133.049 170.47 132.606 171.364C132.163 172.258 131.555 172.947 130.782 173.432C130.01 173.917 129.127 174.159 128.135 174.159C127.142 174.159 126.26 173.917 125.487 173.432C124.714 172.947 124.106 172.258 123.663 171.364C123.22 170.47 122.998 169.409 122.998 168.182C122.998 166.955 123.22 165.894 123.663 165C124.106 164.106 124.714 163.417 125.487 162.932C126.26 162.447 127.142 162.205 128.135 162.205C129.127 162.205 130.01 162.447 130.782 162.932C131.555 163.417 132.163 164.106 132.606 165C133.049 165.894 133.271 166.955 133.271 168.182ZM131.907 168.182C131.907 167.174 131.739 166.324 131.402 165.631C131.068 164.938 130.616 164.413 130.044 164.057C129.476 163.701 128.839 163.523 128.135 163.523C127.43 163.523 126.792 163.701 126.22 164.057C125.652 164.413 125.199 164.938 124.862 165.631C124.529 166.324 124.362 167.174 124.362 168.182C124.362 169.189 124.529 170.04 124.862 170.733C125.199 171.426 125.652 171.951 126.22 172.307C126.792 172.663 127.43 172.841 128.135 172.841C128.839 172.841 129.476 172.663 130.044 172.307C130.616 171.951 131.068 171.426 131.402 170.733C131.739 170.04 131.907 169.189 131.907 168.182ZM137.72 163.614V162.364H146.447V163.614H142.788V174H141.379V163.614H137.72ZM151.822 174V162.364H158.844V163.614H153.231V167.545H158.481V168.795H153.231V172.75H158.935V174H151.822ZM164.584 174V162.364H165.993V172.75H171.402V174H164.584Z" fill="#18181B"/>
<line x1="193" y1="167" x2="243" y2="167" stroke="#18181B" stroke-width="2"/>
</svg>
